<?xml version="1.0" encoding="UTF-8"?>
<svg width="74px" height="74px" viewBox="0 0 74 74" version="1.1" xmlns="http://www.w3.org/2000/svg" xmlns:xlink="http://www.w3.org/1999/xlink">
    <!-- Generator: Sketch 57.1 (83088) - https://sketch.com -->
    <title>aws-sns</title>
    <desc>Created with Sketch.</desc>
    <defs>
        <circle id="path-1" cx="37" cy="37" r="37"></circle>
        <linearGradient x1="-20.71348%" y1="120.704425%" x2="120.707876%" y2="-20.7169315%" id="linearGradient-3">
            <stop stop-color="#B0084D" offset="0%"></stop>
            <stop stop-color="#FF4F8B" offset="100%"></stop>
        </linearGradient>
    </defs>
    <g id="Page-1" stroke="none" stroke-width="1" fill="none" fill-rule="evenodd">
        <g id="aws-sns">
            <mask id="mask-2" fill="white">
                <use xlink:href="#path-1"></use>
            </mask>
            <use id="Mask" fill="#D8D8D8" xlink:href="#path-1"></use>
            <g mask="url(#mask-2)">
                <g transform="translate(0.000000, -1.000000)">
                    <rect id="Pink_Gradient" fill="url(#linearGradient-3)" fill-rule="nonzero" x="0" y="0" width="75" height="75"></rect>
                    <g id="Icon_Test" stroke-width="1" fill="none" fill-rule="evenodd" transform="translate(10.000000, 13.000000)">
                        <path d="M44.58,37.92 L44.58,38.75 C44.58,38.65 44.58,38.55 44.58,38.45 C44.5598416,38.2739084 44.5598416,38.0960916 44.58,37.92 L44.58,37.92 Z" id="Path" fill="#FFFFFF" fill-rule="nonzero"></path>
                        <path d="M31.45,18 L31.35,18.19 C31.3900371,18.1283204 31.4203892,18.0608714 31.44,17.99 L31.45,18 Z" id="Path" fill="#FFFFFF" fill-rule="nonzero"></path>
                        <path d="M22.78,14.5298581 C21.89,14.5298581 14.03,14.46 14.03,17.43 C14.0265608,17.6181483 14.0605527,17.8051038 14.13,17.98 C14.1592313,18.0518807 14.192621,18.1219992 14.23,18.19 L19.67,30.19 L19.67,36.4 C19.67,37.03 19.93,37.4 20.48,37.4 L20.74,37.4 C21.997175,37.0709764 23.1653987,36.4663694 24.16,35.63 L24.83,35.16 C25.1199824,34.9787758 25.2972583,34.6619422 25.3,34.32 L25.3,30.22 L31.35,18.22 L31.35,18.22 C31.3900371,18.1583204 31.4203892,18.0908714 31.44,18.02 C31.5094473,17.8451038 31.5434392,17.6581483 31.54,17.47 C31.54,14.46 23.68,14.5298581 22.78,14.5298581 Z M22.78,16.37 C26.31,16.37 28.58,16.99 29.34,17.43 C28.58,17.87 26.34,18.49 22.78,18.49 C19.22,18.49 16.99,17.87 16.23,17.43 C17,17 19.25,16.37 22.78,16.37 Z M23.51,29.37 C23.51,29.51 23.51,29.76 23.51,30.02 L23.51,33.93 L23.12,34.17 C22.55,34.5 22.05,34.73 21.48,35.03 L21.48,30 C21.4775993,29.8629413 21.4504989,29.7274391 21.4,29.6 L17.14,19.86 C18.9916342,20.2725128 20.8829718,20.4804258 22.78,20.48 C24.6219098,20.4785827 26.4586025,20.2841882 28.26,19.9 L23.51,29.37 Z" id="Shape" fill="#FFFFFF" fill-rule="nonzero"></path>
                        <path d="M41,42.17 C37.0855408,45.0032097 32.3721516,46.5194783 27.54,46.5 C16.66,46.5 7.38,39.43 5.2,29 C7.21766936,28.9040087 8.92544165,27.4781414 9.38,25.51 L14.48,25.51 L14.48,23.62 L9.4,23.62 C9.00310341,21.5967184 7.27922861,20.1037933 5.22,20 C7.029662,12.6608156 12.3299878,6.67934933 19.3981377,3.99984167 C26.4662876,1.32033401 34.3998249,2.28489509 40.62,6.58 L41.76,5 C34.8712023,0.240105436 26.0568962,-0.754999576 18.2802671,2.34921845 C10.503638,5.45343648 4.79744846,12.2447269 3.08,20.44 C1.49652211,21.1735531 0.483129045,22.7598632 0.483129045,24.505 C0.483129045,26.2501368 1.49652211,27.8364469 3.08,28.57 C5.48221522,40.1691207 15.6947416,48.4902839 27.54,48.5000484 C32.7756406,48.5103479 37.8799151,46.8614361 42.12,43.79 L41,42.17 Z M2.5,24.5 C2.49081531,23.2284358 3.43758734,22.1525585 4.7,21.9999799 L5,21.9999799 C6.01205578,21.9959517 6.9267111,22.6024838 7.31681638,23.536342 C7.70692166,24.4702002 7.49550767,25.5471309 6.78130602,26.2642008 C6.06710436,26.9812707 4.99102972,27.1969994 4.05561547,26.8106401 C3.12020121,26.4242809 2.5100081,25.5120639 2.51,24.5 L2.5,24.5 Z" id="Shape" fill="#FFFFFF" fill-rule="nonzero"></path>
                        <path d="M4.86,22 L4.71,22 L4.86,22 Z" id="Path" fill="#FFFFFF" fill-rule="nonzero"></path>
                        <path d="M50,29 C52.3645634,29.0014982 54.3269505,27.1727013 54.4918899,24.8138971 C54.6568294,22.455093 52.9680521,20.3709883 50.6262909,20.0433965 C48.2845296,19.7158047 46.088677,21.2564839 45.6,23.57 L40.4,23.57 L40.4,11.2 L43.1,11.2 C43.40285,13.5087042 45.4169067,15.2050718 47.7434905,15.1110451 C50.0700744,15.0170185 51.9406721,13.1636563 52.0562306,10.8380425 C52.171789,8.51242869 50.4941371,6.482756 48.1883351,6.15854868 C45.882533,5.83434135 43.7102295,7.32269101 43.18,9.59 L39.5,9.54 C39.2433066,9.48535913 38.9758938,9.55534127 38.7788731,9.72871944 C38.5818525,9.90209762 38.478439,10.1584426 38.5,10.42 L38.5,23.54 L30.81,23.54 L30.81,25.39 L38.5,25.39 L38.5,38.47 C38.5,39.0222847 38.9477153,39.47 39.5,39.47 L42.64,39.47 C43.0949039,41.7378972 45.1950438,43.291546 47.4967933,43.0629753 C49.7985427,42.8344047 51.5521168,40.8980705 51.5521168,38.585 C51.5521168,36.2719295 49.7985427,34.3355953 47.4967933,34.1070247 C45.1950438,33.878454 43.0949039,35.4321028 42.64,37.7 L40.46,37.7 L40.41,25.38 L45.6,25.38 C46.0222278,27.4776528 47.8602987,28.9898839 50,29 Z M50,22 C51.3807119,22 52.5,23.1192881 52.5,24.5 C52.5,25.8807119 51.3807119,27 50,27 C48.6192881,27 47.5,25.8807119 47.5,24.5 C47.5,23.1192881 48.6192881,22 50,22 Z M47.5,8.09 C48.5080037,8.09408069 49.4141064,8.70549453 49.7951552,9.63870931 C50.1762041,10.5719241 49.9570174,11.6428144 49.2399559,12.3512712 C48.5228944,13.0597279 47.4494361,13.2659709 46.5208894,12.873684 C45.5923426,12.4813971 44.9919118,11.5679795 45,10.56 C44.9999786,9.89613107 45.2650608,9.25973993 45.7363609,8.79219515 C46.2076611,8.32465037 46.8461525,8.06466772 47.51,8.07 L47.5,8.09 Z M47,35.9999766 C48.3417914,35.9942556 49.4488317,37.048783 49.5082503,38.3892705 C49.5676689,39.7297579 48.5582733,40.8780987 47.221236,40.9910965 C45.8841987,41.1040942 44.696396,40.1414464 44.5299954,38.81 L44.5299954,38.81 C44.5299954,38.71 44.5299954,38.61 44.5299954,38.51 C44.5296461,38.331619 44.5497779,38.1537875 44.59,37.98 L44.59,37.98 C44.8360023,36.8403911 45.8343167,36.0201991 47,35.9999766 L47,35.9999766 Z" id="Shape" fill="#FFFFFF" fill-rule="nonzero"></path>
                    </g>
                </g>
            </g>
        </g>
    </g>
</svg>