<?xml version="1.0" encoding="UTF-8"?>
<svg width="50px" height="51px" viewBox="0 0 50 51" version="1.1" xmlns="http://www.w3.org/2000/svg" xmlns:xlink="http://www.w3.org/1999/xlink">
    <!-- Generator: Sketch 57.1 (83088) - https://sketch.com -->
    <title>Webex</title>
    <desc>Created with Sketch.</desc>
    <g id="Page-1" stroke="none" stroke-width="1" fill="none" fill-rule="evenodd">
        <g id="Webex" transform="translate(0.000000, 0.252473)" fill-rule="nonzero">
            <path d="M10.8792588,4.37685194 C17.9853129,-0.475015812 27.0664636,-1.35522191 34.9131789,2.04752605 C42.74916,5.42880557 48.245081,12.4704543 49.6942008,20.9504887 C49.9732905,22.6035587 50.0806328,25.877496 49.9088852,27.5627686 C49.458048,31.8779254 47.7835095,36.2896901 45.3039045,39.6817038 C41.2356349,45.2420301 35.256674,48.8701967 28.5907229,49.8255424 C27.5065666,49.9865557 24.4473137,50.1153663 23.6529814,50.0294926 C21.6564164,49.8255424 20.8835525,49.7182002 19.6276486,49.4498446 C14.9367942,48.4515621 10.8363219,46.20811 7.33696594,42.7302225 C2.34555332,37.7602783 -0.230659648,31.2016695 0.0162274284,24.1170838 C0.306051387,16.1200894 4.29918149,8.86375619 10.8792588,4.37685194 Z M16.0115867,11.8845715 C11.8238178,14.7403 9.2824637,19.3586552 9.09801058,24.4484105 C8.94088385,28.9574556 10.5804671,33.1317382 13.7571597,36.2949016 C15.9842603,38.5084327 18.5939304,39.936297 21.5793383,40.5716624 C22.3786351,40.7424596 22.8705101,40.8107785 24.1411871,40.9405843 C24.6467253,40.9952394 26.5937304,40.9132568 27.2837217,40.8107785 C31.5261434,40.2027406 35.331343,37.893563 37.9205182,34.3546458 C39.4986171,32.1957697 40.5643462,29.3878644 40.8512733,26.6414461 C40.9605789,25.5688399 40.8922629,23.4851146 40.7146414,22.4330041 C39.7923758,17.0358138 36.2945981,12.5540963 31.3075323,10.4020521 C26.313635,8.23634413 20.5341039,8.79655882 16.0115867,11.8845715 Z" id="Combined-Shape" fill="#3ABCEB"></path>
            <path d="M28.5907229,49.8255424 C35.256674,48.8701967 41.2356349,45.2420301 45.3039045,39.6817038 C47.7835095,36.2896901 49.458048,31.8779254 49.9088852,27.5627686 C50.0806328,25.877496 49.9732905,22.6035587 49.6942008,20.9504887 C48.8032605,15.7443917 46.248516,10.7744475 42.6847547,7.30729419 C41.9870303,6.63103829 41.6542695,6.38415121 41.1604954,6.20166946 C40.462771,5.94404816 39.292741,5.79376907 38.9814486,5.92257972 C38.8741063,5.96551661 38.6486877,6.00845349 38.466206,6.01918771 C38.2944584,6.04065615 37.8543554,6.19093524 37.5001261,6.35194855 C36.2442223,6.95306491 35.256674,8.24117139 34.9990527,9.62588586 C34.8595078,10.3880155 34.9883185,12.0196171 35.2030029,12.1591619 C35.256674,12.1913646 35.2996109,12.2987068 35.2996109,12.406049 C35.2996109,12.502657 35.3640162,12.6529361 35.4391557,12.7280756 C35.503561,12.792481 35.5679664,12.889089 35.5787006,12.9320258 C35.5787006,12.9749627 35.6109033,13.0823049 35.6538401,13.1681787 C35.7611823,13.4472684 35.8792588,14.7031723 35.8577903,15.3150228 C35.8470561,15.6370495 35.8148534,16.2166974 35.8041192,16.6031293 C35.793385,16.9895613 35.7397139,17.365259 35.6860428,17.4403985 C35.6431059,17.5155381 35.6323717,17.7409567 35.6645744,17.9449069 C35.7075112,18.1595913 35.6860428,18.3313388 35.6109033,18.3742757 C35.5464979,18.4172126 35.5250295,18.5674917 35.5572322,18.6963024 C35.5894348,18.8358472 35.5679664,18.9861263 35.5142953,19.018329 C35.4498899,19.0612659 35.4284215,19.1793423 35.4606242,19.2866845 C35.4928268,19.3940267 35.4713584,19.5121031 35.4069531,19.55504 C35.3425477,19.5979769 35.3210793,19.7160533 35.353282,19.8233955 C35.3854846,19.9307377 35.3640162,20.0488142 35.2996109,20.091751 C35.2352055,20.1239537 35.2137371,20.1990932 35.2459398,20.2527644 C35.2781424,20.2957012 35.2244713,20.4674488 35.1385975,20.6391963 C35.063458,20.8002096 35.0097869,20.9719571 35.0419896,21.0256282 C35.0741922,21.0685651 35.0205211,21.2188442 34.9239131,21.3583891 C34.8380394,21.497934 34.7843683,21.6374788 34.8165709,21.6696815 C34.870242,21.7233526 34.6662918,22.4103427 34.430139,22.9363195 C34.3657337,23.0865986 34.2476572,23.3549541 34.1725177,23.5267017 C33.6680093,24.7396686 32.3691686,27.0153234 32.1759526,27.0153234 C32.1222815,27.0153234 32.0793446,27.0797287 32.0793446,27.1656025 C32.0793446,27.240742 31.9612682,27.433958 31.8109891,27.5949713 C31.66071,27.7559846 31.5426336,27.9277321 31.5426336,27.9814033 C31.5426336,28.0458086 31.4460256,28.1424166 31.3279492,28.2175561 C31.2098728,28.2926957 31.1132648,28.4107721 31.1132648,28.4751774 C31.1132648,28.5395827 30.8985804,28.7757356 30.6302249,28.99042 C30.3618693,29.2158386 30.1471849,29.4519915 30.1471849,29.527131 C30.1471849,29.6881443 29.5890054,30.2355896 29.4172579,30.2355896 C29.3528526,30.2355896 29.1381682,30.4288056 28.9556864,30.6649584 C28.7624705,30.9011113 28.547786,31.0943273 28.4726465,31.0943273 C28.3975069,31.0943273 28.2794305,31.1909352 28.2150252,31.3090117 C28.1506199,31.4270881 28.0432777,31.5236961 27.9681381,31.5236961 C27.8929986,31.5236961 27.7749221,31.6203041 27.6997826,31.7383805 C27.6246431,31.8564569 27.4958324,31.9530649 27.4099586,31.9530649 C27.3240849,31.9530649 27.2489453,31.9960018 27.2489453,32.0604071 C27.2489453,32.1140782 27.087932,32.2321546 26.9054503,32.3072942 C26.7122343,32.393168 26.4868157,32.5327128 26.4009419,32.6293208 C26.3258024,32.736663 26.1862575,32.8118026 26.1111179,32.8118026 C26.0252442,32.8118026 25.8642309,32.9084106 25.7461544,33.026487 C25.628078,33.1445634 25.4563305,33.2411714 25.3597225,33.2411714 C25.2631145,33.2411714 24.9732905,33.3914505 24.7156692,33.5846665 C24.458048,33.7671482 24.1574898,33.9281615 24.0501476,33.9388957 C23.9428054,33.9388957 23.7388552,34.0355037 23.5993103,34.1321117 C23.4490312,34.2287197 23.2558152,34.3145935 23.148473,34.3145935 C23.051865,34.3145935 22.9337886,34.3682646 22.901586,34.4326699 C22.8586491,34.486341 22.7727753,34.5185437 22.70837,34.4970752 C22.6332304,34.4756068 22.5044198,34.5078094 22.418546,34.582949 C22.2467985,34.7224938 21.2055791,35.0981916 20.9157551,35.11966 C20.8191471,35.11966 20.6903365,35.1625969 20.6151969,35.216268 C20.5507916,35.2592049 20.4434494,35.2699391 20.3897783,35.2270022 C20.3361072,35.1947996 20.2502334,35.2270022 20.2180308,35.2914075 C20.1750939,35.3450786 20.0784859,35.3772813 19.9926121,35.3450786 C19.9174726,35.312876 19.8208646,35.3343444 19.7779277,35.3987498 C19.7457251,35.4524209 19.6276486,35.4738893 19.5203064,35.4416866 C19.4129642,35.409484 19.2948878,35.4309524 19.2519509,35.4953577 C19.2197483,35.5490288 19.0694692,35.5704973 18.9299243,35.5382946 C18.8011136,35.506092 18.6508346,35.5275604 18.6078977,35.5919657 C18.575695,35.656371 18.4254159,35.6778395 18.2858711,35.6456368 C18.1463262,35.6134342 17.9638444,35.6241684 17.8887049,35.6671053 C17.7169574,35.7744475 17.0943726,35.8066501 14.9582626,35.8281186 L13.3481295,35.849587 L12.543063,35.4309524 C11.7916675,35.0445205 11.6735911,35.0123178 10.6753086,34.9908494 C9.90244469,34.9693809 9.51601274,35.0015836 9.29059411,35.11966 C9.10811236,35.2055338 8.88269372,35.2806733 8.78608574,35.2806733 C8.48552756,35.2806733 7.35843438,36.0750057 6.98273666,36.5580456 C5.83417505,38.0071654 5.58728797,39.8641856 6.33868342,41.4743187 C6.77878647,42.4189301 9.1295808,44.5443058 11.3086276,45.9612229 C14.1102592,47.7753062 16.5147246,48.784323 19.6276486,49.4498446 C20.8835525,49.7182002 21.6564164,49.8255424 23.6529814,50.0294926 C24.4473137,50.1153663 27.5065666,49.9865557 28.5907229,49.8255424 Z" id="Shape" fill="#6EBE4A"></path>
            <path d="M28.5907229,49.8255424 C35.256674,48.8701967 41.2356349,45.2420301 45.3039045,39.6817038 C47.2467985,37.0196171 48.8569316,33.3592478 49.5117191,30.1067789 C49.9196194,28.0780112 50.0376959,26.5859546 49.9732905,24.2888313 C49.9088852,21.9702397 49.6834666,20.4030434 49.1038187,18.3206046 C47.9874597,14.2630692 45.6044627,10.1411285 42.7920969,7.4146364 C41.6005984,6.25534056 40.2802893,5.81523752 38.7882326,6.07285881 C37.2961759,6.33048011 36.0617405,7.25362309 35.3962188,8.6061349 C35.0527238,9.31459346 35.0312553,9.40046723 35.0312553,10.5382946 C35.0312553,11.6009825 35.063458,11.7834642 35.3210793,12.3309095 C35.4820926,12.6744045 35.5787006,12.9534943 35.5464979,12.9534943 C35.5142953,12.9534943 35.9651325,13.4472684 36.5447805,14.059119 C38.6916246,16.2918369 40.0548706,18.9324552 40.6881896,22.1097845 C40.8814056,23.054396 40.9243425,23.6769808 40.9243425,25.0294926 C40.9243425,27.0689945 40.7418607,28.2175561 40.1192759,30.0745763 C38.9385117,33.6061349 36.7701991,36.4185007 33.6572751,38.4365342 C29.5997397,41.0771525 24.1896924,41.6997373 19.6276486,40.0574015 C17.5881467,39.3167403 15.6774554,38.1467103 14.1424619,36.6975905 C13.1119767,35.7207764 12.3927839,35.2914075 11.4374382,35.0659889 C9.99905268,34.7332281 8.38891957,35.2484707 7.3154975,36.3755638 C5.93078303,37.8461521 5.63022485,39.692438 6.49969673,41.5279898 C6.83245757,42.2364483 7.02567354,42.4940696 7.86294276,43.2561993 C9.25839145,44.5335716 9.96685001,45.091751 11.3086276,45.9612229 C14.1102592,47.7753062 16.5147246,48.784323 19.6276486,49.4498446 C20.8835525,49.7182002 21.6564164,49.8255424 23.6529814,50.0294926 C24.4473137,50.1153663 27.5065666,49.9865557 28.5907229,49.8255424 Z" id="Path" fill="#135073"></path>
        </g>
    </g>
</svg>